# xmcd
#
# Track frame offsets: 
#        150
#        32537
#        50767
#        91690
#        117150
#        149875
#        174310
#        191850
#        223690
#        248240
#        280577
#        321697
#
# Disc length: 4564 seconds
#
# Revision: 1
# Processed by: cddbd v1.5.2PL0 Copyright (c) Steve Scherf et al.
# Submitted via: ExactAudioCopy v0.99pb5
#
DISCID=b811d20c
DTITLE=Otis Rush and Band - Natural Man
DYEAR=1986
DGENRE=Blues
TTITLE0=Warm Up Instrumental
TTITLE1=Lonely Man
TTITLE2=Love Is Just A Gamble
TTITLE3=Natural Ball
TTITLE4=Right Place Wrong Time
TTITLE5=Mean Old World
TTITLE6=You Don't Love Me
TTITLE7=Crosscut Saw
TTITLE8=Double Trouble
TTITLE9=All Your Love
TTITLE10=Natural Man
TTITLE11=Caldonia
EXTD=YEAR: 1986
EXTT0=
EXTT1=
EXTT2=
EXTT3=
EXTT4=
EXTT5=
EXTT6=
EXTT7=
EXTT8=
EXTT9=
EXTT10=
EXTT11=
PLAYORDER=
